<svg width="24" height="24" viewBox="0 0 24 24" fill="none" xmlns="http://www.w3.org/2000/svg">
<path d="M5.85355 2.14645C6.04882 2.34171 6.04882 2.65829 5.85355 2.85355L2.85355 5.85355C2.65829 6.04882 2.34171 6.04882 2.14645 5.85355C1.95118 5.65829 1.95118 5.34171 2.14645 5.14645L5.14645 2.14645C5.34171 1.95118 5.65829 1.95118 5.85355 2.14645Z" fill="black"/>
<path d="M9.85355 2.14645C10.0488 2.34171 10.0488 2.65829 9.85355 2.85355L2.85355 9.85355C2.65829 10.0488 2.34171 10.0488 2.14645 9.85355C1.95118 9.65829 1.95118 9.34171 2.14645 9.14645L9.14645 2.14645C9.34171 1.95118 9.65829 1.95118 9.85355 2.14645Z" fill="black"/>
<path fill-rule="evenodd" clip-rule="evenodd" d="M13.8536 2.85355C14.0488 2.65829 14.0488 2.34171 13.8536 2.14645C13.6583 1.95118 13.3417 1.95118 13.1464 2.14645L10.0043 5.2886C7.74305 5.96 5.96 7.74305 5.2886 10.0043L2.14645 13.1464C1.95118 13.3417 1.95118 13.6583 2.14645 13.8536C2.34171 14.0488 2.65829 14.0488 2.85355 13.8536L5.00628 11.7008C5.00211 11.8 5 11.8998 5 12C5 12.6958 5.10153 13.3679 5.29057 14.0023L2.14645 17.1464C1.95118 17.3417 1.95118 17.6583 2.14645 17.8536C2.34171 18.0488 2.65829 18.0488 2.85355 17.8536L5.68445 15.0227C5.95619 15.5894 6.30197 16.1139 6.70926 16.5836L2.14645 21.1464C1.95118 21.3417 1.95118 21.6583 2.14645 21.8536C2.34171 22.0488 2.65829 22.0488 2.85355 21.8536L7.41637 17.2907C7.88609 17.698 8.41059 18.0438 8.97734 18.3156L6.14645 21.1464C5.95118 21.3417 5.95118 21.6583 6.14645 21.8536C6.34171 22.0488 6.65829 22.0488 6.85355 21.8536L9.99768 18.7094C10.6321 18.8985 11.3042 19 12 19C12.1002 19 12.2 18.9979 12.2992 18.9937L10.1464 21.1464C9.95118 21.3417 9.95118 21.6583 10.1464 21.8536C10.3417 22.0488 10.6583 22.0488 10.8536 21.8536L13.9957 18.7114C16.257 18.04 18.04 16.257 18.7114 13.9957L21.8536 10.8536C22.0488 10.6583 22.0488 10.3417 21.8536 10.1464C21.6583 9.95118 21.3417 9.95118 21.1464 10.1464L18.9937 12.2992C18.9979 12.2 19 12.1002 19 12C19 11.3042 18.8985 10.6321 18.7094 9.99768L21.8536 6.85355C22.0488 6.65829 22.0488 6.34171 21.8536 6.14645C21.6583 5.95118 21.3417 5.95118 21.1464 6.14645L18.3156 8.97734C18.0438 8.41059 17.698 7.88609 17.2907 7.41637L21.8536 2.85355C22.0488 2.65829 22.0488 2.34171 21.8536 2.14645C21.6583 1.95118 21.3417 1.95118 21.1464 2.14645L16.5836 6.70926C16.1139 6.30197 15.5894 5.95619 15.0227 5.68445L17.8536 2.85355C18.0488 2.65829 18.0488 2.34171 17.8536 2.14645C17.6583 1.95118 17.3417 1.95118 17.1464 2.14645L14.0023 5.29057C13.3679 5.10153 12.6958 5 12 5C11.8998 5 11.8 5.00211 11.7008 5.00628L13.8536 2.85355ZM7 12C7 9.23858 9.23858 7 12 7C14.7614 7 17 9.23858 17 12C17 14.7614 14.7614 17 12 17C9.23858 17 7 14.7614 7 12Z" fill="black"/>
<path d="M21.8536 14.8536C22.0488 14.6583 22.0488 14.3417 21.8536 14.1464C21.6583 13.9512 21.3417 13.9512 21.1464 14.1464L14.1464 21.1464C13.9512 21.3417 13.9512 21.6583 14.1464 21.8536C14.3417 22.0488 14.6583 22.0488 14.8536 21.8536L21.8536 14.8536Z" fill="black"/>
<path d="M21.8536 18.1464C22.0488 18.3417 22.0488 18.6583 21.8536 18.8536L18.8536 21.8536C18.6583 22.0488 18.3417 22.0488 18.1464 21.8536C17.9512 21.6583 17.9512 21.3417 18.1464 21.1464L21.1464 18.1464C21.3417 17.9512 21.6583 17.9512 21.8536 18.1464Z" fill="black"/>
</svg>
